<mxfile host="app.diagrams.net" modified="2024-03-18T19:40:36.776Z" agent="Mozilla/5.0 (Windows NT 10.0; Win64; x64) AppleWebKit/537.36 (KHTML, like Gecko) Chrome/122.0.0.0 Safari/537.36" etag="1AgAskRWme_SVTQmLGvb" version="24.0.7" type="device">
  <diagram name="Страница — 1" id="ZvuTLBKIUysgnOUtV1A-">
    <mxGraphModel dx="2048" dy="733" grid="1" gridSize="10" guides="1" tooltips="1" connect="1" arrows="1" fold="1" page="1" pageScale="1" pageWidth="827" pageHeight="1169" math="0" shadow="0">
      <root>
        <mxCell id="0" />
        <mxCell id="1" parent="0" />
        <mxCell id="EsY9mAgGHAKh02S5fo5i-10" style="edgeStyle=orthogonalEdgeStyle;rounded=0;orthogonalLoop=1;jettySize=auto;html=1;entryX=0;entryY=0.25;entryDx=0;entryDy=0;" edge="1" parent="1" source="EsY9mAgGHAKh02S5fo5i-1" target="EsY9mAgGHAKh02S5fo5i-4">
          <mxGeometry relative="1" as="geometry" />
        </mxCell>
        <mxCell id="EsY9mAgGHAKh02S5fo5i-11" value="Данные, обработанные&amp;nbsp;&lt;div&gt;моделью машинного обучения&lt;/div&gt;" style="edgeLabel;html=1;align=center;verticalAlign=middle;resizable=0;points=[];" vertex="1" connectable="0" parent="EsY9mAgGHAKh02S5fo5i-10">
          <mxGeometry x="-0.1571" y="-1" relative="1" as="geometry">
            <mxPoint y="20" as="offset" />
          </mxGeometry>
        </mxCell>
        <mxCell id="EsY9mAgGHAKh02S5fo5i-16" style="edgeStyle=orthogonalEdgeStyle;rounded=0;orthogonalLoop=1;jettySize=auto;html=1;entryX=0;entryY=0.25;entryDx=0;entryDy=0;" edge="1" parent="1" target="EsY9mAgGHAKh02S5fo5i-1">
          <mxGeometry relative="1" as="geometry">
            <mxPoint x="40" y="170" as="targetPoint" />
            <mxPoint x="-20" y="190" as="sourcePoint" />
            <Array as="points">
              <mxPoint x="-60" y="190" />
            </Array>
          </mxGeometry>
        </mxCell>
        <mxCell id="EsY9mAgGHAKh02S5fo5i-17" value="Трафик сети" style="edgeLabel;html=1;align=center;verticalAlign=middle;resizable=0;points=[];" vertex="1" connectable="0" parent="EsY9mAgGHAKh02S5fo5i-16">
          <mxGeometry x="0.1298" y="3" relative="1" as="geometry">
            <mxPoint as="offset" />
          </mxGeometry>
        </mxCell>
        <mxCell id="EsY9mAgGHAKh02S5fo5i-1" value="Анализ трафика сети" style="html=1;whiteSpace=wrap;" vertex="1" parent="1">
          <mxGeometry x="90" y="170" width="160" height="80" as="geometry" />
        </mxCell>
        <mxCell id="EsY9mAgGHAKh02S5fo5i-12" style="edgeStyle=orthogonalEdgeStyle;rounded=0;orthogonalLoop=1;jettySize=auto;html=1;entryX=0;entryY=0.5;entryDx=0;entryDy=0;" edge="1" parent="1" source="EsY9mAgGHAKh02S5fo5i-4" target="EsY9mAgGHAKh02S5fo5i-5">
          <mxGeometry relative="1" as="geometry" />
        </mxCell>
        <mxCell id="EsY9mAgGHAKh02S5fo5i-13" value="Данные об угрозе" style="edgeLabel;html=1;align=center;verticalAlign=middle;resizable=0;points=[];" vertex="1" connectable="0" parent="EsY9mAgGHAKh02S5fo5i-12">
          <mxGeometry x="-0.0429" y="-3" relative="1" as="geometry">
            <mxPoint y="9" as="offset" />
          </mxGeometry>
        </mxCell>
        <mxCell id="EsY9mAgGHAKh02S5fo5i-14" style="edgeStyle=orthogonalEdgeStyle;rounded=0;orthogonalLoop=1;jettySize=auto;html=1;" edge="1" parent="1" source="EsY9mAgGHAKh02S5fo5i-4">
          <mxGeometry relative="1" as="geometry">
            <mxPoint x="700" y="340" as="targetPoint" />
          </mxGeometry>
        </mxCell>
        <mxCell id="EsY9mAgGHAKh02S5fo5i-15" value="Вывод об опасности угрозы" style="edgeLabel;html=1;align=center;verticalAlign=middle;resizable=0;points=[];" vertex="1" connectable="0" parent="EsY9mAgGHAKh02S5fo5i-14">
          <mxGeometry x="0.2371" relative="1" as="geometry">
            <mxPoint x="-26" y="-10" as="offset" />
          </mxGeometry>
        </mxCell>
        <mxCell id="EsY9mAgGHAKh02S5fo5i-4" value="Классификация вторжений и выявление угроз" style="html=1;whiteSpace=wrap;" vertex="1" parent="1">
          <mxGeometry x="300" y="300" width="160" height="80" as="geometry" />
        </mxCell>
        <mxCell id="EsY9mAgGHAKh02S5fo5i-5" value="С&lt;span style=&quot;background-color: initial;&quot;&gt;охранение обнаруженных вторжений в базу данных&lt;/span&gt;" style="html=1;whiteSpace=wrap;" vertex="1" parent="1">
          <mxGeometry x="500" y="430" width="160" height="80" as="geometry" />
        </mxCell>
        <mxCell id="EsY9mAgGHAKh02S5fo5i-18" style="edgeStyle=orthogonalEdgeStyle;rounded=0;orthogonalLoop=1;jettySize=auto;html=1;entryX=0;entryY=0.25;entryDx=0;entryDy=0;" edge="1" parent="1">
          <mxGeometry relative="1" as="geometry">
            <mxPoint x="90" y="230" as="targetPoint" />
            <mxPoint x="-10" y="230" as="sourcePoint" />
            <Array as="points">
              <mxPoint x="-60" y="230" />
            </Array>
          </mxGeometry>
        </mxCell>
        <mxCell id="EsY9mAgGHAKh02S5fo5i-19" value="Сигнатуры атак" style="edgeLabel;html=1;align=center;verticalAlign=middle;resizable=0;points=[];" vertex="1" connectable="0" parent="EsY9mAgGHAKh02S5fo5i-18">
          <mxGeometry x="0.1298" y="3" relative="1" as="geometry">
            <mxPoint x="7" as="offset" />
          </mxGeometry>
        </mxCell>
        <mxCell id="EsY9mAgGHAKh02S5fo5i-21" style="edgeStyle=orthogonalEdgeStyle;rounded=0;orthogonalLoop=1;jettySize=auto;html=1;entryX=0.25;entryY=1;entryDx=0;entryDy=0;" edge="1" parent="1" target="EsY9mAgGHAKh02S5fo5i-1">
          <mxGeometry relative="1" as="geometry">
            <mxPoint x="170" y="520" as="targetPoint" />
            <mxPoint x="30" y="590" as="sourcePoint" />
            <Array as="points">
              <mxPoint x="130" y="590" />
            </Array>
          </mxGeometry>
        </mxCell>
        <mxCell id="EsY9mAgGHAKh02S5fo5i-23" style="edgeStyle=orthogonalEdgeStyle;rounded=0;orthogonalLoop=1;jettySize=auto;html=1;entryX=0.25;entryY=1;entryDx=0;entryDy=0;" edge="1" parent="1" target="EsY9mAgGHAKh02S5fo5i-4">
          <mxGeometry relative="1" as="geometry">
            <mxPoint x="340" y="380" as="targetPoint" />
            <mxPoint x="40" y="590" as="sourcePoint" />
            <Array as="points">
              <mxPoint x="130" y="590" />
              <mxPoint x="130" y="460" />
              <mxPoint x="340" y="460" />
            </Array>
          </mxGeometry>
        </mxCell>
        <mxCell id="EsY9mAgGHAKh02S5fo5i-24" style="edgeStyle=orthogonalEdgeStyle;rounded=0;orthogonalLoop=1;jettySize=auto;html=1;entryX=0.25;entryY=1;entryDx=0;entryDy=0;" edge="1" parent="1" target="EsY9mAgGHAKh02S5fo5i-5">
          <mxGeometry relative="1" as="geometry">
            <mxPoint x="350" y="390" as="targetPoint" />
            <mxPoint x="50" y="590" as="sourcePoint" />
            <Array as="points">
              <mxPoint x="50" y="590" />
              <mxPoint x="130" y="590" />
              <mxPoint x="130" y="550" />
              <mxPoint x="540" y="550" />
            </Array>
          </mxGeometry>
        </mxCell>
        <mxCell id="EsY9mAgGHAKh02S5fo5i-25" value="Аналитик" style="edgeLabel;html=1;align=center;verticalAlign=middle;resizable=0;points=[];" vertex="1" connectable="0" parent="EsY9mAgGHAKh02S5fo5i-24">
          <mxGeometry x="-0.9392" y="-1" relative="1" as="geometry">
            <mxPoint x="3" y="-11" as="offset" />
          </mxGeometry>
        </mxCell>
        <mxCell id="EsY9mAgGHAKh02S5fo5i-26" style="edgeStyle=orthogonalEdgeStyle;rounded=0;orthogonalLoop=1;jettySize=auto;html=1;entryX=0.75;entryY=1;entryDx=0;entryDy=0;" edge="1" parent="1" target="EsY9mAgGHAKh02S5fo5i-5">
          <mxGeometry relative="1" as="geometry">
            <mxPoint x="640" y="520" as="targetPoint" />
            <mxPoint x="490" y="600" as="sourcePoint" />
            <Array as="points">
              <mxPoint x="620" y="600" />
            </Array>
          </mxGeometry>
        </mxCell>
        <mxCell id="EsY9mAgGHAKh02S5fo5i-27" value="База данных" style="edgeLabel;html=1;align=center;verticalAlign=middle;resizable=0;points=[];" vertex="1" connectable="0" parent="EsY9mAgGHAKh02S5fo5i-26">
          <mxGeometry x="-0.9392" y="-1" relative="1" as="geometry">
            <mxPoint x="3" y="-11" as="offset" />
          </mxGeometry>
        </mxCell>
      </root>
    </mxGraphModel>
  </diagram>
</mxfile>
